<svg xmlns="http://www.w3.org/2000/svg" width="24" height="24" viewBox="0 0 24 24" fill="none" stroke="#e05a00" stroke-width="2" stroke-linecap="round" stroke-linejoin="round">
  <path stroke="none" d="M0 0h24v24H0z" fill="none"/>
  <path d="M3 3v18h18" />
  <path d="M9 15m-2 0a2 2 0 1 0 4 0a2 2 0 1 0 -4 0" />
  <path d="M14 7m-2 0a2 2 0 1 0 4 0a2 2 0 1 0 -4 0" />
  <path d="M18 11m-2 0a2 2 0 1 0 4 0a2 2 0 1 0 -4 0" />
  <path d="M10.16 13.37l2.015 -4.736" />
  <path d="M15.548 10.29l1.452 -1.29" />
</svg>